<svg fill="#ECBD90" xmlns="http://www.w3.org/2000/svg"  viewBox="0 0 48 48" width="48px" height="48px"><path d="M 13.5 6 C 9.3754991 6 6 9.3754991 6 13.5 L 6 34.5 C 6 38.624501 9.3754991 42 13.5 42 L 34.5 42 C 38.624501 42 42 38.624501 42 34.5 L 42 13.5 C 42 9.3754991 38.624501 6 34.5 6 L 13.5 6 z M 13.5 9 L 34.5 9 C 37.003499 9 39 10.996501 39 13.5 L 39 34.5 C 39 37.003499 37.003499 39 34.5 39 L 13.5 39 C 10.996501 39 9 37.003499 9 34.5 L 9 13.5 C 9 10.996501 10.996501 9 13.5 9 z M 18.476562 14.978516 A 1.50015 1.50015 0 0 0 17 16.5 L 17 31.5 A 1.50015 1.50015 0 1 0 20 31.5 L 20 16.5 A 1.50015 1.50015 0 0 0 18.476562 14.978516 z M 30.476562 14.978516 A 1.50015 1.50015 0 0 0 29 16.5 L 29 21 L 28 21 C 24.704135 21 22 23.704135 22 27 C 22 30.295865 24.704135 33 28 33 L 30.5 33 A 1.50015 1.50015 0 0 0 32 31.5 L 32 22.746094 A 1.50015 1.50015 0 0 0 32 22.259766 L 32 16.5 A 1.50015 1.50015 0 0 0 30.476562 14.978516 z M 28 24 L 29 24 L 29 30 L 28 30 C 26.325865 30 25 28.674135 25 27 C 25 25.325865 26.325865 24 28 24 z"/></svg>
