<?xml version="1.0" encoding="UTF-8"?>
<svg xmlns="http://www.w3.org/2000/svg" xmlns:xlink="http://www.w3.org/1999/xlink" viewBox="0 0 64 64" width="64px" height="64px">
<g id="surface38563422">
<path style=" stroke:none;fill-rule:nonzero;fill:rgb(92.54902%,74.117649%,56.470591%);fill-opacity:1;" d="M 29.5 1 C 26.691406 1 24.027344 1.597656 21.609375 2.636719 C 20.582031 3.066406 19.59375 3.558594 18.664062 4.125 C 18.660156 4.128906 18.652344 4.132812 18.648438 4.136719 C 13.800781 7.230469 10.464844 12.355469 10.007812 18.265625 C 10.007812 18.277344 10.003906 18.292969 10.003906 18.304688 C 10.003906 18.308594 10 18.335938 10 18.386719 C 10 18.390625 10 18.394531 10 18.398438 C 9.972656 19.570312 10.792969 20.652344 11.984375 20.867188 C 12.039062 20.878906 12.097656 20.882812 12.152344 20.882812 L 21.816406 20.996094 C 22.25 21.078125 22.6875 20.863281 22.890625 20.46875 C 22.894531 20.464844 22.894531 20.460938 22.898438 20.453125 C 22.898438 20.453125 22.898438 20.449219 22.902344 20.449219 C 22.980469 20.285156 23.019531 20.105469 23.003906 19.921875 C 23.023438 17.378906 24.019531 15.691406 25.269531 14.578125 C 26.53125 13.453125 28.121094 12.976562 28.972656 13 C 29.898438 13.027344 31.46875 13.472656 32.578125 14.503906 C 33.683594 15.539062 34.464844 17.09375 34.015625 19.816406 C 33.585938 21.949219 32.207031 23.175781 29.878906 24.175781 C 27.542969 25.179688 24.328125 25.808594 20.769531 26.519531 C 20.300781 26.613281 19.964844 27.023438 19.964844 27.5 L 19.964844 33.167969 C 19.960938 33.203125 19.964844 33.234375 19.96875 33.265625 C 19.945312 33.542969 20.039062 33.8125 20.226562 34.015625 C 20.226562 34.015625 23.878906 38 30 38 C 31.78125 38 33.277344 37.824219 34.546875 37.546875 C 35.046875 38.296875 35.421875 39.21875 35.554688 40.433594 C 35.464844 41.164062 35.039062 42.332031 34.128906 43.265625 C 33.191406 44.230469 31.777344 45.011719 29.503906 45.011719 C 24.800781 45.011719 22.925781 40.625 22.921875 40.609375 C 22.917969 40.605469 22.917969 40.605469 22.917969 40.601562 C 22.90625 40.574219 22.890625 40.546875 22.878906 40.519531 C 22.65625 40.105469 22.179688 39.898438 21.726562 40.019531 L 12.332031 40.894531 C 12.175781 40.910156 12.023438 40.960938 11.890625 41.042969 C 11.890625 41.042969 10 42.230469 10.003906 44.484375 C 10.011719 54.703125 19.011719 63 29.5 63 C 41.15625 63 48.988281 54.984375 48.988281 45.046875 C 48.988281 39.875 46.894531 35.324219 43.480469 32.035156 C 46.851562 29.039062 49 24.9375 49 19.863281 C 49 9.472656 40.292969 1.058594 29.601562 1.003906 C 29.566406 1.003906 29.535156 1 29.5 1 Z M 46.988281 2.175781 C 46.734375 2.175781 46.476562 2.273438 46.28125 2.46875 L 44.871094 3.886719 C 44.484375 4.28125 44.484375 4.914062 44.875 5.300781 C 45.070312 5.496094 45.328125 5.59375 45.582031 5.59375 C 45.839844 5.59375 46.09375 5.496094 46.292969 5.296875 L 47.703125 3.878906 C 48.089844 3.488281 48.089844 2.855469 47.695312 2.464844 C 47.5 2.273438 47.246094 2.175781 46.988281 2.175781 Z M 31.730469 3.214844 C 40.351562 4.28125 47 11.289062 47 19.863281 C 47 24.695312 44.914062 28.359375 41.527344 31.082031 C 41.464844 31.109375 41.410156 31.140625 41.355469 31.179688 C 41.046875 31.324219 39.441406 32 36 32 C 33.359375 32 31.894531 31.59375 31.019531 31.207031 C 33.113281 30.460938 37.546875 28.601562 40.273438 23.46875 C 40.53125 22.980469 40.347656 22.375 39.859375 22.117188 C 39.371094 21.855469 38.765625 22.042969 38.507812 22.53125 C 35.5625 28.078125 28.734375 30.035156 28.734375 30.035156 C 28.710938 30.042969 28.683594 30.050781 28.660156 30.058594 C 28.652344 30.0625 28.644531 30.0625 28.640625 30.066406 C 28.636719 30.066406 28.636719 30.066406 28.636719 30.066406 C 28.632812 30.070312 28.628906 30.070312 28.625 30.070312 C 28.59375 30.082031 25.222656 31.378906 21.964844 32.113281 L 21.964844 28.308594 C 25.195312 27.667969 28.222656 27.0625 30.671875 26.011719 C 33.269531 24.894531 35.308594 23.125 35.933594 20.371094 C 35.953125 20.3125 35.96875 20.253906 35.980469 20.195312 C 35.980469 20.195312 35.980469 20.195312 35.980469 20.191406 C 35.984375 20.183594 35.984375 20.175781 35.988281 20.164062 C 35.988281 20.15625 35.988281 20.148438 35.988281 20.140625 C 35.992188 20.113281 35.996094 20.085938 36 20.054688 C 36.5 16.847656 35.476562 14.476562 33.941406 13.042969 C 32.390625 11.59375 30.460938 11.039062 29.027344 11 C 27.484375 10.957031 25.578125 11.625 23.9375 13.085938 C 22.480469 14.386719 21.300781 16.371094 21.054688 18.988281 L 12.332031 18.886719 C 12.128906 18.839844 11.996094 18.679688 12 18.445312 C 12 18.445312 12 18.429688 12.003906 18.417969 C 12.398438 13.257812 15.269531 8.765625 19.5 5.972656 C 19.566406 5.953125 19.628906 5.921875 19.6875 5.886719 C 20.277344 5.554688 22.546875 4.429688 26.65625 4.429688 C 29.050781 4.429688 32.441406 5.121094 35.132812 6.996094 C 37.824219 8.871094 39.886719 11.84375 39.886719 16.824219 C 39.878906 17.1875 40.070312 17.523438 40.378906 17.703125 C 40.691406 17.886719 41.078125 17.886719 41.390625 17.703125 C 41.699219 17.523438 41.890625 17.1875 41.886719 16.824219 C 41.886719 11.269531 39.410156 7.542969 36.277344 5.355469 C 34.832031 4.347656 33.269531 3.679688 31.730469 3.214844 Z M 50.308594 6.535156 C 50.179688 6.554688 50.050781 6.601562 49.933594 6.675781 L 48.238281 7.730469 C 47.765625 8.023438 47.621094 8.640625 47.914062 9.109375 C 48.101562 9.414062 48.429688 9.578125 48.765625 9.578125 C 48.945312 9.578125 49.128906 9.53125 49.292969 9.429688 L 50.992188 8.371094 C 51.460938 8.082031 51.601562 7.464844 51.3125 6.992188 C 51.089844 6.644531 50.691406 6.472656 50.308594 6.535156 Z M 52.910156 11.566406 C 52.777344 11.554688 52.644531 11.570312 52.515625 11.617188 L 50.613281 12.246094 C 50.089844 12.417969 49.804688 12.984375 49.980469 13.507812 C 50.117188 13.929688 50.507812 14.195312 50.929688 14.195312 C 51.03125 14.195312 51.136719 14.179688 51.242188 14.144531 L 53.140625 13.515625 C 53.664062 13.34375 53.949219 12.773438 53.777344 12.253906 C 53.644531 11.859375 53.296875 11.597656 52.910156 11.566406 Z M 53.84375 17.03125 L 51.851562 17.1875 C 51.296875 17.234375 50.886719 17.714844 50.929688 18.265625 C 50.96875 18.789062 51.410156 19.1875 51.925781 19.1875 C 51.953125 19.1875 51.980469 19.1875 52.007812 19.183594 L 54 19.027344 C 54.550781 18.984375 54.960938 18.503906 54.917969 17.953125 C 54.875 17.402344 54.390625 16.988281 53.84375 17.03125 Z M 51.882812 22.277344 C 51.335938 22.183594 50.820312 22.550781 50.726562 23.09375 C 50.632812 23.640625 51 24.152344 51.542969 24.246094 L 53.511719 24.585938 C 53.570312 24.597656 53.628906 24.601562 53.683594 24.601562 C 54.160156 24.601562 54.585938 24.257812 54.671875 23.773438 C 54.765625 23.226562 54.398438 22.710938 53.855469 22.617188 Z M 50.234375 27.085938 C 49.84375 27.066406 49.464844 27.277344 49.285156 27.652344 C 49.046875 28.152344 49.257812 28.746094 49.757812 28.984375 L 51.5625 29.847656 C 51.703125 29.914062 51.847656 29.945312 51.992188 29.945312 C 52.367188 29.945312 52.726562 29.734375 52.894531 29.375 C 53.132812 28.875 52.921875 28.277344 52.425781 28.039062 L 50.617188 27.179688 C 50.492188 27.121094 50.363281 27.089844 50.234375 27.085938 Z M 28.703125 32.152344 C 28.964844 32.386719 29.304688 32.644531 29.804688 32.894531 C 30.980469 33.484375 32.890625 34 36 34 C 36.714844 34 37.355469 33.960938 37.957031 33.90625 C 37.847656 34 37.765625 34.085938 37.628906 34.179688 C 36.386719 35.046875 34.113281 36 30 36 C 26.515625 36 24.46875 34.78125 23.171875 33.792969 C 25.800781 33.136719 27.90625 32.425781 28.703125 32.152344 Z M 41.726562 33.15625 C 44.988281 36.109375 46.988281 40.230469 46.988281 45.046875 C 46.988281 53.953125 40.257812 61 29.5 61 C 20.066406 61 12.007812 53.519531 12.003906 44.484375 C 12 43.5 12.640625 42.996094 12.832031 42.855469 L 21.105469 42.089844 L 21.332031 44.277344 C 21.179688 44.414062 21.023438 44.570312 20.871094 44.777344 C 20.371094 45.453125 19.964844 46.53125 19.964844 48.132812 C 19.964844 50.726562 20.976562 53.066406 22.835938 54.707031 C 24.695312 56.347656 27.351562 57.273438 30.566406 57.273438 C 33.84375 57.273438 37.335938 55.976562 40.0625 53.585938 C 42.789062 51.195312 44.730469 47.664062 44.730469 43.324219 C 44.730469 39.082031 43.046875 35.773438 41.050781 33.363281 C 41.316406 33.289062 41.539062 33.222656 41.726562 33.15625 Z M 39.789062 34.976562 C 41.433594 37.070312 42.730469 39.800781 42.730469 43.328125 C 42.730469 47.074219 41.097656 50.019531 38.742188 52.082031 C 36.390625 54.144531 33.304688 55.273438 30.566406 55.273438 C 27.734375 55.273438 25.589844 54.46875 24.15625 53.207031 C 22.726562 51.945312 21.964844 50.21875 21.964844 48.136719 C 21.964844 47.390625 22.136719 47.222656 22.265625 46.867188 C 22.636719 47.09375 23.117188 47.054688 23.445312 46.765625 C 23.773438 46.476562 23.878906 46.007812 23.703125 45.609375 C 23.4375 44.996094 23.375 44.605469 23.375 44.597656 C 23.371094 44.597656 23.371094 44.59375 23.371094 44.59375 L 23.363281 44.496094 C 24.722656 45.796875 26.730469 47.011719 29.503906 47.011719 C 31.96875 47.011719 33.84375 46.183594 35.136719 45.054688 C 34.808594 46.09375 34.277344 47.066406 33.386719 47.761719 C 33.085938 47.976562 32.925781 48.335938 32.972656 48.703125 C 33.015625 49.066406 33.261719 49.378906 33.601562 49.511719 C 33.945312 49.644531 34.335938 49.574219 34.617188 49.335938 C 37.359375 47.191406 37.617188 43.664062 37.617188 41.472656 C 37.617188 41.121094 37.597656 40.785156 37.566406 40.457031 C 37.566406 40.367188 37.558594 40.273438 37.535156 40.1875 C 37.386719 38.949219 37.042969 37.875 36.546875 36.96875 C 37.449219 36.628906 38.1875 36.230469 38.773438 35.820312 C 39.179688 35.539062 39.511719 35.25 39.789062 34.976562 Z M 25.019531 47.816406 C 24.574219 47.804688 24.175781 48.085938 24.039062 48.507812 C 23.898438 48.929688 24.054688 49.390625 24.421875 49.644531 C 25.542969 50.4375 27.066406 51 29 51 C 29.359375 51.003906 29.695312 50.816406 29.878906 50.503906 C 30.058594 50.191406 30.058594 49.808594 29.878906 49.496094 C 29.695312 49.183594 29.359375 48.996094 29 49 C 27.445312 49 26.375 48.578125 25.578125 48.011719 C 25.414062 47.890625 25.222656 47.824219 25.019531 47.816406 Z M 25.019531 47.816406 "/>
</g>
</svg>
